<svg class="svg-icon" style="width: 1.3603515625em; height: 1em;vertical-align: middle;fill: currentColor;overflow: hidden;" viewBox="0 0 1393 1024" version="1.1" xmlns="http://www.w3.org/2000/svg"><path d="M619.3 888H381.2c-38.2 0-69.4-30.8-70-68.9l-50-486.2v-1c0-38.6 31.4-70 70-70h338.1c38.6 0 70 31.4 70 70v1l-0.1 1-49.9 485.2c-0.6 38.1-31.8 68.9-70 68.9zM301.2 331l50 486v1c0 16.5 13.5 30 30 30h238.1c16.5 0 30-13.5 30-30v-1l0.1-1 49.9-485c-0.5-16.1-13.8-29.1-30-29.1H331.2c-16.3 0-29.5 12.9-30 29.1z" fill="#444D68" /><path d="M298.1 309.4l88.1 62.1c17.7-19.5 30.3-44.1 34.9-72 12.9-77.3-39.3-150.3-116.5-163.2-77.3-12.9-150.3 39.3-163.2 116.5C128.5 330 180.6 403.1 257.9 416c13.6 2.3 27.1 2.5 40.2 1V309.4z" fill="#F4DB73" /><path d="M281.4 427.9c-8.4 0-16.8-0.7-25.1-2.1C173.7 412 117.8 333.6 131.6 251c13.8-82.6 92.2-138.5 174.8-124.7 40 6.7 75 28.5 98.6 61.5 23.6 33 32.9 73.2 26.2 113.2-4.8 28.9-17.8 55.5-37.4 77.1l-5.9 6.5-79.6-56.1-0.1 97.2-8.8 1c-6.1 0.9-12 1.2-18 1.2z m-0.4-283.6c-27.2 0-53.7 8.4-76.3 24.6-28.7 20.5-47.6 50.8-53.4 85.6-12 71.7 36.6 139.8 108.3 151.7 9.5 1.6 19 2.1 28.5 1.6l0.1-117.7 96.4 68c13.8-17.4 23-38.1 26.7-60.2 12-71.7-36.6-139.8-108.3-151.7-7.4-1.3-14.7-1.9-22-1.9z" fill="#444D68" /><path d="M298.1 309.4l88.1 62.1c17.7-19.5 30.3-44.1 34.9-72 12.9-77.3-39.3-150.3-116.5-163.2-77.3-12.9-150.3 39.3-163.2 116.5C128.5 330 180.6 403.1 257.9 416c13.6 2.3 27.1 2.5 40.2 1V309.4z" fill="#F9CC12" /><path d="M281.4 427.9c-8.4 0-16.8-0.7-25.1-2.1C173.7 412 117.8 333.6 131.6 251c13.8-82.6 92.2-138.5 174.8-124.7 40 6.7 75 28.5 98.6 61.5 23.6 33 32.9 73.2 26.2 113.2-4.8 28.9-17.8 55.5-37.4 77.1l-5.9 6.5-79.6-56.1-0.1 97.2-8.8 1c-6.1 0.9-12 1.2-18 1.2z m-0.4-283.6c-27.2 0-53.7 8.4-76.3 24.6-28.7 20.5-47.6 50.8-53.4 85.6-12 71.7 36.6 139.8 108.3 151.7 9.5 1.6 19 2.1 28.5 1.6l0.1-117.7 96.4 68c13.8-17.4 23-38.1 26.7-60.2 12-71.7-36.6-139.8-108.3-151.7-7.4-1.3-14.7-1.9-22-1.9zM499.4 644.6c-11 0-20-9-20-20V177.2c0-11 9-20 20-20s20 9 20 20v447.4c0 11.1-8.9 20-20 20z" fill="#444D68" /><path d="M499.5 197.2c-7.8 0-15.2-4.6-18.4-12.3-4.3-10.2 0.5-21.9 10.7-26.2l156.7-65.9c10.2-4.3 21.9 0.5 26.2 10.7 4.3 10.2-0.5 21.9-10.7 26.2l-156.7 65.9c-2.6 1.1-5.3 1.6-7.8 1.6z" fill="#444D68" /><path d="M307.4 489.7L341.2 818c0 27.5 22.5 50 50 50h238.1c27.5 0 50-22.5 50-50l33.8-328.4s-62.6 20-116.6 20c-65 0-86.2-50-164.4-50-60.7 0-124.7 30.1-124.7 30.1z" fill="#186FED" /><path d="M629.3 888H391.2c-38.2 0-69.4-30.8-70-68.9l-35.1-341.5 12.9-6c2.8-1.3 68.7-31.9 133.1-31.9 46 0 74.6 15.5 99.9 29.2 20.7 11.2 38.6 20.9 64.5 20.9 50.3 0 110-18.9 110.6-19.1l29.1-9.3-36.8 357.8c-0.7 38-31.9 68.8-70.1 68.8zM328.9 502.3L361.2 817v1c0 16.5 13.5 30 30 30h238.1c16.5 0 30-13.5 30-30v-1l0.1-1 30.8-299.3c-24.3 5.9-60.3 13-93.8 13-36.1 0-60.2-13.1-83.6-25.7-23.1-12.5-45-24.3-80.9-24.3-40-0.1-82.3 14.4-103 22.6z" fill="#444D68" /><path d="M387.7 556.8m-22.6 0a22.6 22.6 0 1 0 45.2 0 22.6 22.6 0 1 0-45.2 0Z" fill="#FFFFFF" /><path d="M459.5 655.8m-14.6 0a14.6 14.6 0 1 0 29.2 0 14.6 14.6 0 1 0-29.2 0Z" fill="#FFFFFF" /><path d="M428.8 801.5m-10.1 0a10.1 10.1 0 1 0 20.2 0 10.1 10.1 0 1 0-20.2 0Z" fill="#FFFFFF" /><path d="M496.6 768.1m-6.5 0a6.5 6.5 0 1 0 13 0 6.5 6.5 0 1 0-13 0Z" fill="#FFFFFF" /><path d="M577 783m-5.9 0a5.9 5.9 0 1 0 11.8 0 5.9 5.9 0 1 0-11.8 0Z" fill="#FFFFFF" /><path d="M628.8 888h-238c-38.2 0-69.4-30.8-70-68.9l-50-486.2v-1c0-38.6 31.4-70 70-70h338.1c38.6 0 70 31.4 70 70v1l-0.1 1-49.9 485.2c-0.6 38.1-31.8 68.9-70.1 68.9z m-318-557l50 486v1c0 16.5 13.5 30 30 30h238.1c16.5 0 30-13.5 30-30v-1l0.1-1 49.9-485c-0.5-16.1-13.8-29.1-30-29.1H340.8c-16.3 0-29.6 12.9-30 29.1z" fill="#444D68" /><path d="M402.6 212.7l-118.7 74.9 99.2 71.5 27.4-25.6 12.2-80.1z" fill="#F9E280" /><path d="M383.5 365.6l-108.6-78.2 129.7-81.8 23.2 47.1-12.7 83.3-31.6 29.6z m-90.7-77.7l89.9 64.7 23.1-21.6 11.7-76.8-16.9-34.3-107.8 68z" fill="#FFFAB6" /><path d="M172.1 199.4l110.7 82-5.1-143.8-23 2.1-73.1 30.8z" fill="#F9E280" /><path d="M288.1 291.6l-121.9-90.4 11.4-34.4 75.9-32 29-2.7 5.6 159.5zM178 197.5l99.4 73.7-4.5-128.2-16.9 1.6-70.3 29.6-7.7 23.3z" fill="#FFFAB6" /><path d="M199.7 392.1l84.2-104.5-150.1 4.7 8.1 20.9 36.6 60.6z" fill="#F9E280" /><path d="M200.3 399.3l-25.7-22.2-0.4-0.7-36.8-61-10.8-27.8 168-5.3-94.3 117z m-17.9-28.7L199 385l74.1-92-132.1 4.1 5.4 13.8 36 59.7z" fill="#FFFAB6" /><path d="M281.4 427.9c-8.4 0-16.8-0.7-25.1-2.1C173.7 412 117.8 333.6 131.6 251c13.8-82.6 92.2-138.5 174.8-124.7 40 6.7 75 28.5 98.6 61.5 23.6 33 32.9 73.2 26.2 113.2-4.8 28.9-17.8 55.5-37.4 77.1l-5.7 6.2-79.8-50.8v92.2l-8.8 1c-6.2 0.9-12.1 1.2-18.1 1.2z m-0.4-283.6c-27.2 0-53.7 8.4-76.3 24.6-28.7 20.5-47.6 50.8-53.4 85.6-12 71.7 36.6 139.8 108.3 151.7 9.5 1.6 19 2.1 28.5 1.6l0.1-110.5 96.1 61.2c14-17.5 23.3-38.3 27-60.6 12-71.7-36.6-139.8-108.3-151.7-7.4-1.3-14.7-1.9-22-1.9z" fill="#444D68" /></svg>